<svg xmlns="http://www.w3.org/2000/svg" xmlns:xlink="http://www.w3.org/1999/xlink" width="1919.987" height="890.241" viewBox="0 0 1919.987 890.241">
  <defs>
    <linearGradient id="linear-gradient" x1="0.068" y1="0.897" x2="0.525" y2="0.425" gradientUnits="objectBoundingBox">
      <stop offset="0" stop-color="#03fffc"/>
      <stop offset="1" stop-color="#2aa9ff"/>
    </linearGradient>
  </defs>
  <path id="Path_1" data-name="Path 1" d="M0,0H955.224s60.411,134.865,208.941,191.148,339.756,41.7,339.756,41.7,135.812-20.08,239.828,18.536,176.237,135.927,176.237,135.927V890.092s-113.195-33.982-217.572-33.982-208.941,33.982-208.941,33.982-90.844-33.982-181.688-33.982S1130.1,890.092,1130.1,890.092,1051.064,856.11,972.03,856.11s-69.073,31.975-158.068,33.982c-53.381,1.2-99.928-33.982-185.322-33.982s-102.5,32.3-156.252,33.982c-88.232,2.768-141.717-33.982-259.814-33.982S0,890.092,0,890.092Z" opacity="0.9" fill="url(#linear-gradient)"/>
</svg>
