<svg xmlns="http://www.w3.org/2000/svg" xmlns:xlink="http://www.w3.org/1999/xlink" width="705.743" height="500" viewBox="0 0 705.743 500">
  <defs>
    <linearGradient id="linear-gradient" y1="0.5" x2="1" y2="0.5" gradientUnits="objectBoundingBox">
      <stop offset="0" stop-color="#0075cd"/>
      <stop offset="1" stop-color="#00a4de"/>
    </linearGradient>
    <linearGradient id="linear-gradient-3" y1="0.5" x2="1" y2="0.5" gradientUnits="objectBoundingBox">
      <stop offset="0" stop-color="#0024b1"/>
      <stop offset="1" stop-color="#0075cd"/>
    </linearGradient>
  </defs>
  <g id="Group_159" data-name="Group 159" transform="translate(-212.463 -83.668)">
    <path id="Path_6707" data-name="Path 6707" d="M511.3,108.74H467.687a26.413,26.413,0,0,0-50.169,0H303.6a26.427,26.427,0,1,0,0,16.587H417.524a26.412,26.412,0,0,0,50.159,0H511.3Z" transform="translate(101.415 17.736)" fill="url(#linear-gradient)"/>
    <path id="Path_6708" data-name="Path 6708" d="M553.6,139.711H508.876a26.411,26.411,0,0,0-50.162,0H297.809a26.429,26.429,0,0,0-25.083-18.135h0a26.43,26.43,0,1,0,0,52.86h0A26.427,26.427,0,0,0,297.809,156.3H458.714a26.41,26.41,0,0,0,50.162,0H553.6Z" transform="translate(86.586 97.021)" fill="url(#linear-gradient)"/>
    <path id="Path_6709" data-name="Path 6709" d="M602.361,188.194h-82A26.419,26.419,0,0,0,495.5,170.682h0a26.416,26.416,0,0,0-24.855,17.512H282.853a26.389,26.389,0,1,0,.37,16.818H470.273a26.441,26.441,0,0,0,25.229,18.53h0a26.44,26.44,0,0,0,25.225-18.53h81.634Z" transform="translate(48.902 222.702)" fill="url(#linear-gradient-3)"/>
    <path id="Path_6710" data-name="Path 6710" d="M610.8,124.822H464.98a26.415,26.415,0,0,0-50.173,0H274.464a26.432,26.432,0,1,0-.007,16.587H414.814a26.412,26.412,0,0,0,50.159,0H610.8Z" transform="translate(26.838 58.896)" fill="url(#linear-gradient-3)"/>
    <path id="Path_6711" data-name="Path 6711" d="M574.561,172.839h-49a26.412,26.412,0,0,0-50.166,0H298.146A26.424,26.424,0,0,0,273.063,154.7h0a26.43,26.43,0,0,0,0,52.86h0a26.425,26.425,0,0,0,25.083-18.135H475.393a26.414,26.414,0,0,0,50.166,0h49Z" transform="translate(87.459 181.798)" fill="url(#linear-gradient)"/>
    <path id="Path_6712" data-name="Path 6712" d="M651.263,156.487H511.942a26.411,26.411,0,0,0-50.162,0H263.974A26.421,26.421,0,0,0,238.9,138.352h0a26.43,26.43,0,0,0,0,52.86h0a26.419,26.419,0,0,0,25.079-18.139H461.78a26.41,26.41,0,0,0,50.162,0H651.263Z" transform="translate(0 139.957)" fill="url(#linear-gradient-3)"/>
    <path id="Path_6713" data-name="Path 6713" d="M427.344,203.026H312.992a26.427,26.427,0,0,0-25.083-18.139h0a26.43,26.43,0,0,0,0,52.86h0a26.427,26.427,0,0,0,25.083-18.139H427.344Z" transform="translate(125.456 259.058)" fill="url(#linear-gradient)"/>
    <path id="Path_6714" data-name="Path 6714" d="M428.164,219.789H300.069a26.429,26.429,0,0,0-25.083-18.135h0a26.428,26.428,0,1,0,0,52.857h0a26.429,26.429,0,0,0,25.083-18.135H428.164Z" transform="translate(92.37 301.971)" fill="url(#linear-gradient-3)"/>
    <path id="Path_6715" data-name="Path 6715" d="M673.965,263.281V101.333c.064-3.008.117-6.015.189-9.023a20.028,20.028,0,0,0-.189-3.421V83.81h-5.713a25.488,25.488,0,0,0-2.766-.142q-152.772.363-305.544.167H346.726c.221,1.1.16,1.687.424,1.947a8.287,8.287,0,0,0,2.239,1.691c32.91,15.085,53.8,41.061,66.187,74.252,10.183,27.293,11.846,55.822,10.158,84.649-.32,5.517-.025,10.888,2.018,16.2,4.211,10.938,12.3,18.875,20.175,27.005,9.671,9.98,21.157,18.107,29.881,29.059,3.63,4.56,4.634,9.422,2.944,15.284-2.734,9.479-10.109,14.448-17.4,19.68-4.748,3.4-7.8,7.7-6.98,13.882.537,4.083,2.645,7.6,4.381,11.223,2.826,5.894.57,10.173-4.442,13.216-2.99,1.815-6.517,2.73-9.607,4.4-1.744.947-4.947.2-5.076,2.933-.1,2.217,2.748,2.21,4.292,3.171,15.238,9.454,12.045,17.395,1.744,25.065a15.422,15.422,0,0,0-6.2,13.01c.05,7.649.16,15.3-.039,22.944a20.67,20.67,0,0,1-7.841,16.007c-10.4,8.642-22.73,8.61-35.12,7.816-12.173-.78-24.343-1.025-36.537-1.168-30.963-.363-58.577,24.264-53.508,60.855,2.121,15.32,18.744,36.9,40.207,36.711,75.277-.637,150.565-.559,225.853-.466v.47h99.485v-7.685c.025-1.171.025-2.509.021-4.083q-.021-7.683-.021-15.366V437.492Q674.072,350.385,673.965,263.281Z" transform="translate(244.045)" fill="url(#linear-gradient)"/>
  </g>
</svg>
